name C:\Users\u0088756\Documents\FWO\Software\ExoSim\SimExo_3D\3dpredictsim\Results\BatchSim_2020_03_17_UpdIG\Active_100.mot
datacolumns 126
datarows 4
range 0.00000000 0.03558802
endheader
time	pelvis_tilt	pelvis_list	pelvis_rotation	pelvis_tx	pelvis_ty	pelvis_tz	hip_flexion_l	hip_adduction_l	hip_rotation_l	hip_flexion_r	hip_adduction_r	hip_rotation_r	knee_angle_l	knee_angle_r	ankle_angle_l	ankle_angle_r	subtalar_angle_l	subtalar_angle_r	mtp_angle_l	mtp_angle_r	lumbar_extension	lumbar_bending	lumbar_rotation	arm_flex_l	arm_add_l	arm_rot_l	arm_flex_r	arm_add_r	arm_rot_r	elbow_flex_l	elbow_flex_r	pro_sup_l	pro_sup_r	glut_med1_l/activation	glut_med2_l/activation	glut_med3_l/activation	glut_min1_l/activation	glut_min2_l/activation	glut_min3_l/activation	semimem_l/activation	semiten_l/activation	bifemlh_l/activation	bifemsh_l/activation	sar_l/activation	add_long_l/activation	add_brev_l/activation	add_mag1_l/activation	add_mag2_l/activation	add_mag3_l/activation	tfl_l/activation	pect_l/activation	grac_l/activation	glut_max1_l/activation	glut_max2_l/activation	glut_max3_l/activation	iliacus_l/activation	psoas_l/activation	quad_fem_l/activation	gem_l/activation	peri_l/activation	rect_fem_l/activation	vas_med_l/activation	vas_int_l/activation	vas_lat_l/activation	med_gas_l/activation	lat_gas_l/activation	soleus_l/activation	tib_post_l/activation	flex_dig_l/activation	flex_hal_l/activation	tib_ant_l/activation	per_brev_l/activation	per_long_l/activation	per_tert_l/activation	ext_dig_l/activation	ext_hal_l/activation	ercspn_l/activation	intobl_l/activation	extobl_l/activation	glut_med1_r/activation	glut_med2_r/activation	glut_med3_r/activation	glut_min1_r/activation	glut_min2_r/activation	glut_min3_r/activation	semimem_r/activation	semiten_r/activation	bifemlh_r/activation	bifemsh_r/activation	sar_r/activation	add_long_r/activation	add_brev_r/activation	add_mag1_r/activation	add_mag2_r/activation	add_mag3_r/activation	tfl_r/activation	pect_r/activation	grac_r/activation	glut_max1_r/activation	glut_max2_r/activation	glut_max3_r/activation	iliacus_r/activation	psoas_r/activation	quad_fem_r/activation	gem_r/activation	peri_r/activation	rect_fem_r/activation	vas_med_r/activation	vas_int_r/activation	vas_lat_r/activation	med_gas_r/activation	lat_gas_r/activation	soleus_r/activation	tib_post_r/activation	flex_dig_r/activation	flex_hal_r/activation	tib_ant_r/activation	per_brev_r/activation	per_long_r/activation	per_tert_r/activation	ext_dig_r/activation	ext_hal_r/activation	ercspn_r/activation	intobl_r/activation	extobl_r/activation	
          0.00000000	         -2.92604565	         -1.41530773	          7.10006025	          0.00000000	          0.85869615	         -0.00027983	        -13.59372184	         -1.99022889	          9.41784465	         31.96858995	          2.00886789	          0.99381189	        -20.41852903	        -16.94475555	        -11.18574278	          8.28185133	         18.85057059	          2.18877264	         30.72643877	         -0.08967346	         -0.18495244	         -0.52815185	         -2.48015042	          3.25628930	        -13.51941196	         17.30436406	        -13.42633462	        -13.54586082	          6.10785231	         45.03309068	         19.20966015	         86.51662706	         86.51662706	          0.16590927	          0.08590736	          0.05000041	          0.20271351	          0.13324357	          0.08590883	          0.05000209	          0.05000026	          0.05000028	          0.05000099	          0.08740641	          0.13922373	          0.18898271	          0.05001913	          0.05000437	          0.05000068	          0.18316897	          0.11618638	          0.07634782	          0.05000318	          0.05000164	          0.05000082	          0.30508751	          0.43973098	          0.06599266	          0.05001081	          0.05000231	          0.17965321	          0.10838398	          0.11897423	          0.11799795	          0.13601759	          0.18747290	          0.05487911	          0.13154118	          0.16538469	          0.16875586	          0.31492212	          0.26584076	          0.24241744	          0.46952395	          0.41403645	          0.22618305	          0.05099333	          0.06163590	          0.07172525	          0.07031002	          0.05000324	          0.05000043	          0.05988548	          0.05988440	          0.05000819	          0.05001443	          0.05000080	          0.20127734	          0.05000023	          0.05000691	          0.08590654	          0.14759808	          0.15230655	          0.15617028	          0.16420927	          0.05000028	          0.06069640	          0.05000107	          0.05000095	          0.05000125	          0.18016868	          0.05866764	          0.05000097	          0.16115202	          0.17673607	          0.19477402	          0.06885671	          0.22877552	          0.22193394	          0.19141075	          0.05000002	          0.05000004	          0.05000001	          0.05000003	          0.05000098	          0.05000072	          0.68894972	          0.33698359	          0.17542019	          0.49337032	          0.63853508	          0.46610877	          0.05000022	          0.09680051	          0.10085216	
          0.01186267	         -2.91638620	         -1.35580306	          7.24245629	          0.01916505	          0.85735786	         -0.00003566	        -13.66357589	         -2.10911232	          9.28267854	         31.14023556	          2.23654379	          1.20721313	        -21.83388858	        -17.15189764	        -13.90852052	          7.60915240	         19.23408812	          1.85344554	         30.98252734	         -0.06337340	          0.08169698	         -0.37546921	         -2.54830165	          2.74624670	        -13.57517621	         17.46649039	        -14.69334759	        -13.54116279	          6.08750326	         46.10235028	         19.15417001	         86.51662706	         86.51662706	          0.13852200	          0.07172651	          0.07172562	          0.16925088	          0.11124864	          0.07172778	          0.05004138	          0.05011003	          0.05988621	          0.05000037	          0.07297807	          0.16946998	          0.28583283	          0.25320016	          0.11177192	          0.12126355	          0.15293259	          0.09700753	          0.06515062	          0.05990434	          0.05997089	          0.08370784	          0.25472549	          0.37093511	          0.07177235	          0.07172581	          0.05988739	          0.14999711	          0.09413408	          0.09950036	          0.09852173	          0.11356460	          0.15652600	          0.05000001	          0.10982714	          0.13808404	          0.14089867	          0.47678452	          0.24832456	          0.23117078	          0.70378407	          0.54432519	          0.28131195	          0.07312808	          0.06716987	          0.05988558	          0.20651159	          0.05000079	          0.16936514	          0.05000027	          0.05000029	          0.05000053	          0.05000016	          0.05000056	          0.16805170	          0.05000015	          0.05000044	          0.07172627	          0.12323387	          0.26622259	          0.23864113	          0.14751395	          0.05000354	          0.05068809	          0.05136678	          0.14454676	          0.12812318	          0.15042768	          0.05000026	          0.05000077	          0.27718055	          0.14756168	          0.16262206	          0.05988578	          0.25817151	          0.25433529	          0.21882784	          0.05000283	          0.05000531	          0.05407821	          0.05988547	          0.05988660	          0.05988610	          0.60025322	          0.36024632	          0.19055370	          0.41192792	          0.55580969	          0.38916637	          0.05000002	          0.08082125	          0.08420408	
          0.02372535	         -2.90303193	         -1.30598831	          7.35340308	          0.03831730	          0.85565988	          0.00018384	        -13.56140034	         -2.19552448	          9.14609828	         30.15900074	          2.44732473	          1.47255655	        -23.59844582	        -17.65930261	        -15.99063726	          7.17658960	         19.52829468	          1.49405904	         29.59521428	         -0.17918190	          0.33928665	         -0.20354870	         -2.60261947	          2.21062188	        -13.64009427	         17.57970781	        -15.88353690	        -13.55504092	          6.18012855	         47.13487182	         19.01419882	         86.51662706	         86.51662706	          0.25168038	          0.05988640	          0.05988561	          0.14131501	          0.09288458	          0.05988753	          0.05000366	          0.05000041	          0.05000090	          0.05000057	          0.06093167	          0.14149510	          0.23864983	          0.21140358	          0.09332194	          0.10124647	          0.12768749	          0.08099508	          0.05439643	          0.05001669	          0.05007174	          0.06989001	          0.21267699	          0.37200823	          0.05992463	          0.05988598	          0.05000166	          0.12523647	          0.07859513	          0.08307558	          0.08225844	          0.09481803	          0.13068764	          0.05000007	          0.09169753	          0.11529002	          0.11764000	          0.46374132	          0.30372512	          0.22356661	          0.67708962	          0.68772623	          0.43221986	          0.09951299	          0.05608186	          0.05000018	          0.31382644	          0.30751215	          0.40835094	          0.21484196	          0.12499460	          0.26832371	          0.07580832	          0.10074495	          0.14031075	          0.07172554	          0.05000225	          0.05988631	          0.10289124	          0.22227657	          0.20628840	          0.17165804	          0.05000035	          0.05002003	          0.08691183	          0.25281966	          0.19310502	          0.17081090	          0.05000045	          0.05000031	          0.23142560	          0.12320350	          0.32006796	          0.05000023	          0.22086308	          0.25210308	          0.20779607	          0.05000007	          0.05000013	          0.05000002	          0.05000002	          0.05000108	          0.05000069	          0.68177285	          0.30078638	          0.15909832	          0.67162286	          0.67083746	          0.47788648	          0.05512753	          0.07172569	          0.07030417	
          0.03558802	         -2.88829400	         -1.26679153	          7.42544505	          0.05714995	          0.85384552	          0.00043188	        -13.24541502	         -2.25919616	          9.02068222	         29.19355955	          2.67009308	          1.73262508	        -25.74859218	        -18.21562028	        -17.39384886	          6.85364847	         19.76018290	          1.12262222	         26.47063756	         -0.20958429	          0.56376394	         -0.01620466	         -2.64249995	          1.71431962	        -13.70209291	         17.66485656	        -16.91247013	        -13.57493702	          6.40823444	         48.04227252	         18.72463207	         86.51662706	         86.51662706	          0.21013459	          0.05000088	          0.05000016	          0.11798789	          0.07755191	          0.05000188	          0.05701836	          0.05000064	          0.05000971	          0.05000016	          0.05087369	          0.11813835	          0.23713111	          0.19392432	          0.11337676	          0.12322463	          0.10660968	          0.06762545	          0.05000042	          0.05000258	          0.05000184	          0.05835371	          0.17756956	          0.34301940	          0.05003270	          0.05000112	          0.05000019	          0.10456317	          0.07172545	          0.07172542	          0.07172544	          0.07916605	          0.10911457	          0.05000004	          0.07656067	          0.09625878	          0.09822076	          0.56355049	          0.25358829	          0.18666169	          0.64139699	          0.74204399	          0.36087166	          0.12668038	          0.05000002	          0.05000009	          0.43023670	          0.49662873	          0.59794674	          0.25661451	          0.40395246	          0.47793236	          0.06329446	          0.08908550	          0.11714909	          0.05988574	          0.05000046	          0.05000079	          0.08590664	          0.18558497	          0.20271408	          0.17945372	          0.05000036	          0.05000218	          0.07256574	          0.35138116	          0.25796079	          0.20639698	          0.05000008	          0.05000008	          0.19322351	          0.10286623	          0.26876768	          0.05000005	          0.34823942	          0.36498424	          0.30612996	          0.05000003	          0.05000008	          0.05000001	          0.08969123	          0.05000171	          0.05000068	          0.82230312	          0.25113433	          0.13283531	          0.56075568	          0.65006173	          0.59318493	          0.07554000	          0.05988566	          0.05869879	
